<svg width="204" height="204" viewBox="0 0 204 204" fill="none" xmlns="http://www.w3.org/2000/svg">
<g clip-path="url(#clip0_201_6)">
<path d="M187.639 69.9022C193.092 67.8587 199.226 70.6144 200.696 76.2485C206.238 97.4864 204.802 120.051 196.436 140.546C186.737 164.31 168.435 183.543 145.182 194.409C121.928 205.275 95.4333 206.975 70.9821 199.169C46.5309 191.364 25.9211 174.628 13.2642 152.299C0.607315 129.97 -3.16619 103.69 2.69649 78.7017C8.55917 53.7135 23.627 31.8541 44.8941 17.4843C66.1612 3.11446 92.0641 -2.70933 117.435 1.17471C139.317 4.52451 159.415 14.8828 174.791 30.5467C178.869 34.7021 178.083 41.3806 173.529 45.0091C168.975 48.6375 162.385 47.8273 158.195 43.7833C146.212 32.2156 130.877 24.5643 114.244 22.018C94.1181 18.9369 73.5701 23.5567 56.6994 34.9559C39.8288 46.3551 27.8758 63.6956 23.2251 83.5181C18.5744 103.34 21.5679 124.188 31.6082 141.901C41.6486 159.614 57.9979 172.89 77.3943 179.082C96.7908 185.274 117.809 183.925 136.255 175.305C154.701 166.686 169.219 151.429 176.914 132.578C183.273 116.999 184.584 99.9118 180.815 83.6881C179.497 78.0165 182.187 71.9458 187.639 69.9022Z" fill="url(#paint0_linear_201_6)"/>
<path d="M69.1553 114C70.6006 112.603 71.9736 111.242 73.2744 109.917C74.5993 108.568 75.7074 107.135 76.5986 105.617C76.0687 105.954 75.5869 106.171 75.1533 106.268C74.7197 106.34 74.2861 106.376 73.8525 106.376C72.5036 106.376 71.2389 106.051 70.0586 105.4C68.8783 104.75 67.9147 103.823 67.168 102.618C66.4453 101.414 66.084 99.9925 66.084 98.3545C66.084 96.5238 66.5055 94.9219 67.3486 93.5488C68.2158 92.1758 69.36 91.1159 70.7812 90.3691C72.2266 89.6224 73.8044 89.249 75.5146 89.249C77.1286 89.249 78.6462 89.6344 80.0674 90.4053C81.5127 91.152 82.681 92.224 83.5723 93.6211C84.4876 94.9941 84.9453 96.6322 84.9453 98.5352C84.9453 100.149 84.6803 101.727 84.1504 103.269C83.6204 104.81 82.9339 106.268 82.0908 107.641C81.2718 108.99 80.4046 110.206 79.4893 111.29C78.5739 112.374 77.7428 113.277 76.9961 114H69.1553ZM75.5146 100.631C76.2855 100.631 76.8877 100.366 77.3213 99.8359C77.779 99.2819 78.0078 98.6436 78.0078 97.9209C78.0078 97.1982 77.779 96.5719 77.3213 96.042C76.8877 95.488 76.2855 95.2109 75.5146 95.2109C74.7438 95.2109 74.1296 95.488 73.6719 96.042C73.2383 96.5719 73.0215 97.1982 73.0215 97.9209C73.0215 98.6436 73.2383 99.2819 73.6719 99.8359C74.1296 100.366 74.7438 100.631 75.5146 100.631ZM97.5195 89.249C99.5911 89.249 101.326 89.779 102.723 90.8389C104.144 91.8747 105.216 93.3441 105.938 95.2471C106.661 97.126 107.022 99.3421 107.022 101.896C107.022 104.449 106.661 106.677 105.938 108.58C105.216 110.459 104.144 111.928 102.723 112.988C101.326 114.024 99.5911 114.542 97.5195 114.542C95.4479 114.542 93.7015 114.024 92.2803 112.988C90.8831 111.928 89.8232 110.459 89.1006 108.58C88.3779 106.677 88.0166 104.449 88.0166 101.896C88.0166 99.3421 88.3779 97.126 89.1006 95.2471C89.8232 93.3441 90.8831 91.8747 92.2803 90.8389C93.7015 89.779 95.4479 89.249 97.5195 89.249ZM97.5195 94.8496C96.6283 94.8496 95.9779 95.4398 95.5684 96.6201C95.1589 97.7764 94.9541 99.5348 94.9541 101.896C94.9541 104.232 95.1589 105.991 95.5684 107.171C95.9779 108.351 96.6283 108.941 97.5195 108.941C98.4349 108.941 99.0853 108.351 99.4707 107.171C99.8802 105.991 100.085 104.232 100.085 101.896C100.085 99.5348 99.8802 97.7764 99.4707 96.6201C99.0853 95.4398 98.4349 94.8496 97.5195 94.8496ZM128.63 87.9844L132.713 90.0439L117.862 114.723L113.888 112.663L128.63 87.9844ZM115.297 89.249C116.381 89.249 117.332 89.502 118.151 90.0078C118.994 90.4896 119.645 91.152 120.103 91.9951C120.56 92.8382 120.789 93.7656 120.789 94.7773C120.789 95.7891 120.56 96.7165 120.103 97.5596C119.645 98.4027 118.994 99.0771 118.151 99.583C117.332 100.065 116.381 100.306 115.297 100.306C114.213 100.306 113.249 100.065 112.406 99.583C111.587 99.0771 110.949 98.4027 110.491 97.5596C110.034 96.7165 109.805 95.7891 109.805 94.7773C109.805 93.7656 110.034 92.8382 110.491 91.9951C110.949 91.152 111.587 90.4896 112.406 90.0078C113.249 89.502 114.213 89.249 115.297 89.249ZM115.333 93.1152C114.875 93.1152 114.478 93.2839 114.141 93.6211C113.827 93.9342 113.671 94.3197 113.671 94.7773C113.671 95.235 113.827 95.6325 114.141 95.9697C114.478 96.307 114.875 96.4756 115.333 96.4756C115.791 96.4756 116.176 96.307 116.489 95.9697C116.802 95.6325 116.959 95.235 116.959 94.7773C116.959 94.3197 116.802 93.9342 116.489 93.6211C116.176 93.2839 115.791 93.1152 115.333 93.1152ZM131.195 103.485C132.279 103.485 133.231 103.738 134.05 104.244C134.893 104.726 135.543 105.388 136.001 106.231C136.459 107.075 136.688 108.002 136.688 109.014C136.688 110.025 136.459 110.953 136.001 111.796C135.543 112.639 134.893 113.313 134.05 113.819C133.231 114.301 132.279 114.542 131.195 114.542C130.111 114.542 129.148 114.301 128.305 113.819C127.486 113.313 126.847 112.639 126.39 111.796C125.932 110.953 125.703 110.025 125.703 109.014C125.703 108.002 125.932 107.075 126.39 106.231C126.847 105.388 127.486 104.726 128.305 104.244C129.148 103.738 130.111 103.485 131.195 103.485ZM131.231 107.352C130.774 107.352 130.376 107.52 130.039 107.857C129.726 108.171 129.569 108.556 129.569 109.014C129.569 109.471 129.726 109.869 130.039 110.206C130.376 110.543 130.774 110.712 131.231 110.712C131.689 110.712 132.075 110.543 132.388 110.206C132.701 109.869 132.857 109.471 132.857 109.014C132.857 108.556 132.701 108.171 132.388 107.857C132.075 107.52 131.689 107.352 131.231 107.352Z" fill="white"/>
</g>
<defs>
<linearGradient id="paint0_linear_201_6" x1="-12.4348" y1="91.2146" x2="228.124" y2="92.0981" gradientUnits="userSpaceOnUse">
<stop stop-color="#AA367C"/>
<stop offset="1" stop-color="#4A2FBD"/>
</linearGradient>
<clipPath id="clip0_201_6">
<rect width="204" height="204" fill="white"/>
</clipPath>
</defs>
</svg>
