<svg width="204" height="204" viewBox="0 0 204 204" fill="none" xmlns="http://www.w3.org/2000/svg">
<g clip-path="url(#clip0_201_6)">
<path d="M187.639 69.9022C193.092 67.8587 199.226 70.6144 200.696 76.2485C206.238 97.4864 204.802 120.051 196.436 140.546C186.737 164.31 168.435 183.543 145.182 194.409C121.928 205.275 95.4333 206.975 70.9821 199.169C46.5309 191.364 25.9211 174.628 13.2642 152.299C0.607315 129.97 -3.16619 103.69 2.69649 78.7017C8.55917 53.7135 23.627 31.8541 44.8941 17.4843C66.1612 3.11446 92.0641 -2.70933 117.435 1.17471C139.317 4.52451 159.415 14.8828 174.791 30.5467C178.869 34.7021 178.083 41.3806 173.529 45.0091C168.975 48.6375 162.385 47.8273 158.195 43.7833C146.212 32.2156 130.877 24.5643 114.244 22.018C94.1181 18.9369 73.5701 23.5567 56.6994 34.9559C39.8288 46.3551 27.8758 63.6956 23.2251 83.5181C18.5744 103.34 21.5679 124.188 31.6082 141.901C41.6486 159.614 57.9979 172.89 77.3943 179.082C96.7908 185.274 117.809 183.925 136.255 175.305C154.701 166.686 169.219 151.429 176.914 132.578C183.273 116.999 184.584 99.9118 180.815 83.6881C179.497 78.0165 182.187 71.9458 187.639 69.9022Z" fill="url(#paint0_linear_201_6)"/>
<path d="M75.8398 89.249C77.3092 89.249 78.6462 89.514 79.8506 90.0439C81.055 90.5739 82.0186 91.3447 82.7412 92.3564C83.4639 93.3682 83.8252 94.5967 83.8252 96.042C83.8252 97.4391 83.5 98.5592 82.8496 99.4023C82.1992 100.245 81.4766 100.86 80.6816 101.245C81.332 101.462 81.9463 101.835 82.5244 102.365C83.1266 102.871 83.6084 103.497 83.9697 104.244C84.3551 104.967 84.5479 105.786 84.5479 106.701C84.5479 108.267 84.1504 109.64 83.3555 110.82C82.5846 112.001 81.5368 112.916 80.2119 113.566C78.887 114.217 77.4297 114.542 75.8398 114.542C74.25 114.542 72.7926 114.217 71.4678 113.566C70.167 112.916 69.1191 112.001 68.3242 110.82C67.5293 109.64 67.1318 108.267 67.1318 106.701C67.1318 105.786 67.3125 104.967 67.6738 104.244C68.0592 103.497 68.5531 102.871 69.1553 102.365C69.7575 101.835 70.3717 101.462 70.998 101.245C70.2031 100.86 69.4805 100.245 68.8301 99.4023C68.1797 98.5592 67.8545 97.4391 67.8545 96.042C67.8545 94.5967 68.2158 93.3682 68.9385 92.3564C69.6611 91.3447 70.6247 90.5739 71.8291 90.0439C73.0335 89.514 74.3704 89.249 75.8398 89.249ZM75.8398 94.7051C75.2376 94.7051 74.7197 94.9219 74.2861 95.3555C73.8766 95.765 73.6719 96.3551 73.6719 97.126C73.6719 97.8727 73.8766 98.487 74.2861 98.9688C74.7197 99.4505 75.2376 99.6914 75.8398 99.6914C76.4661 99.6914 76.984 99.4505 77.3936 98.9688C77.8031 98.487 78.0078 97.8727 78.0078 97.126C78.0078 96.3551 77.8031 95.765 77.3936 95.3555C76.984 94.9219 76.4661 94.7051 75.8398 94.7051ZM75.8398 103.811C75.1413 103.811 74.5632 104.051 74.1055 104.533C73.6719 104.991 73.4551 105.641 73.4551 106.484C73.4551 107.327 73.6719 107.978 74.1055 108.436C74.5632 108.869 75.1413 109.086 75.8398 109.086C76.5384 109.086 77.1045 108.869 77.5381 108.436C77.9958 107.978 78.2246 107.327 78.2246 106.484C78.2246 105.641 77.9958 104.991 77.5381 104.533C77.1045 104.051 76.5384 103.811 75.8398 103.811ZM104.204 89.791V95.7529H96.1465V99.5107C96.6283 99.318 97.2064 99.1615 97.8809 99.041C98.5553 98.9206 99.1696 98.8604 99.7236 98.8604C100.832 98.8604 101.868 99.1253 102.831 99.6553C103.795 100.161 104.577 100.908 105.18 101.896C105.806 102.883 106.119 104.088 106.119 105.509C106.119 107.604 105.661 109.327 104.746 110.676C103.855 112.001 102.674 112.976 101.205 113.603C99.7357 114.229 98.1458 114.542 96.4355 114.542C95.1829 114.542 94.111 114.422 93.2197 114.181C92.3285 113.964 91.5817 113.687 90.9795 113.35C90.3773 113.012 89.8594 112.699 89.4258 112.41V107.026C90.4857 107.532 91.4251 107.918 92.2441 108.183C93.0872 108.448 94.0387 108.58 95.0986 108.58C96.3753 108.58 97.375 108.436 98.0977 108.146C98.8203 107.857 99.1816 107.267 99.1816 106.376C99.1816 105.629 98.8444 105.015 98.1699 104.533C97.4954 104.051 96.5319 103.811 95.2793 103.811C94.3639 103.811 93.5208 103.883 92.75 104.027C92.0033 104.172 91.2926 104.34 90.6182 104.533V89.791H104.204ZM128.63 87.9844L132.713 90.0439L117.862 114.723L113.888 112.663L128.63 87.9844ZM115.297 89.249C116.381 89.249 117.332 89.502 118.151 90.0078C118.994 90.4896 119.645 91.152 120.103 91.9951C120.56 92.8382 120.789 93.7656 120.789 94.7773C120.789 95.7891 120.56 96.7165 120.103 97.5596C119.645 98.4027 118.994 99.0771 118.151 99.583C117.332 100.065 116.381 100.306 115.297 100.306C114.213 100.306 113.249 100.065 112.406 99.583C111.587 99.0771 110.949 98.4027 110.491 97.5596C110.034 96.7165 109.805 95.7891 109.805 94.7773C109.805 93.7656 110.034 92.8382 110.491 91.9951C110.949 91.152 111.587 90.4896 112.406 90.0078C113.249 89.502 114.213 89.249 115.297 89.249ZM115.333 93.1152C114.875 93.1152 114.478 93.2839 114.141 93.6211C113.827 93.9342 113.671 94.3197 113.671 94.7773C113.671 95.235 113.827 95.6325 114.141 95.9697C114.478 96.307 114.875 96.4756 115.333 96.4756C115.791 96.4756 116.176 96.307 116.489 95.9697C116.802 95.6325 116.959 95.235 116.959 94.7773C116.959 94.3197 116.802 93.9342 116.489 93.6211C116.176 93.2839 115.791 93.1152 115.333 93.1152ZM131.195 103.485C132.279 103.485 133.231 103.738 134.05 104.244C134.893 104.726 135.543 105.388 136.001 106.231C136.459 107.075 136.688 108.002 136.688 109.014C136.688 110.025 136.459 110.953 136.001 111.796C135.543 112.639 134.893 113.313 134.05 113.819C133.231 114.301 132.279 114.542 131.195 114.542C130.111 114.542 129.148 114.301 128.305 113.819C127.486 113.313 126.847 112.639 126.39 111.796C125.932 110.953 125.703 110.025 125.703 109.014C125.703 108.002 125.932 107.075 126.39 106.231C126.847 105.388 127.486 104.726 128.305 104.244C129.148 103.738 130.111 103.485 131.195 103.485ZM131.231 107.352C130.774 107.352 130.376 107.52 130.039 107.857C129.726 108.171 129.569 108.556 129.569 109.014C129.569 109.471 129.726 109.869 130.039 110.206C130.376 110.543 130.774 110.712 131.231 110.712C131.689 110.712 132.075 110.543 132.388 110.206C132.701 109.869 132.857 109.471 132.857 109.014C132.857 108.556 132.701 108.171 132.388 107.857C132.075 107.52 131.689 107.352 131.231 107.352Z" fill="white"/>
</g>
<defs>
<linearGradient id="paint0_linear_201_6" x1="-12.4348" y1="91.2146" x2="228.124" y2="92.0981" gradientUnits="userSpaceOnUse">
<stop stop-color="#AA367C"/>
<stop offset="1" stop-color="#4A2FBD"/>
</linearGradient>
<clipPath id="clip0_201_6">
<rect width="204" height="204" fill="white"/>
</clipPath>
</defs>
</svg>
