<svg width="128" height="42" viewBox="0 0 128 42" fill="none" xmlns="http://www.w3.org/2000/svg">
<path d="M16.2695 0.804688C20.1758 0.804688 23.7109 1.58594 26.875 3.14844C30.0391 4.71094 32.5586 6.97656 34.4336 9.94531C36.3086 12.9141 37.2461 16.5078 37.2461 20.7266C37.2461 23.6172 36.7578 26.3516 35.7812 28.9297C34.8438 31.4688 33.4961 33.7148 31.7383 35.668C29.9805 37.6211 27.8711 39.1445 25.4102 40.2383C22.9492 41.332 20.1953 41.8789 17.1484 41.8789C15.3516 41.8789 13.4375 41.8008 11.4062 41.6445C9.41406 41.5273 7.46094 41.332 5.54688 41.0586C3.63281 40.8242 1.875 40.5508 0.273438 40.2383V2.44531C2.77344 2.01562 5.41016 1.64453 8.18359 1.33203C10.9961 0.980469 13.6914 0.804688 16.2695 0.804688ZM16.6211 11.0586C15.7227 11.0586 14.7852 11.1367 13.8086 11.293C12.8711 11.4102 12.0117 11.5664 11.2305 11.7617V30.9219C12.1289 31.1953 13.0469 31.3906 13.9844 31.5078C14.9219 31.5859 15.8008 31.625 16.6211 31.625C18.6133 31.625 20.293 31.1758 21.6602 30.2773C23.0664 29.3398 24.1406 28.0898 24.8828 26.5273C25.625 24.9648 25.9961 23.2266 25.9961 21.3125C25.9961 18.2656 25.1758 15.8047 23.5352 13.9297C21.9336 12.0156 19.6289 11.0586 16.6211 11.0586ZM60.625 0.804688C63.8672 0.804688 66.6797 1.29297 69.0625 2.26953C71.4844 3.20703 73.3594 4.53516 74.6875 6.25391C76.0547 7.97266 76.7383 9.96484 76.7383 12.2305C76.7383 14.2227 76.25 15.9414 75.2734 17.3867C74.3359 18.832 73.1055 19.9844 71.582 20.8438C72.793 21.2734 73.9258 21.8398 74.9805 22.543C76.0352 23.207 76.875 24.0859 77.5 25.1797C78.1641 26.2734 78.4961 27.6992 78.4961 29.457C78.4961 31.6445 77.793 33.6953 76.3867 35.6094C74.9805 37.4844 73.0469 39.0078 70.5859 40.1797C68.125 41.3125 65.3125 41.8789 62.1484 41.8789C60.3516 41.8789 58.3398 41.7812 56.1133 41.5859C53.8867 41.4297 51.7578 41.2148 49.7266 40.9414C47.7344 40.668 46.1133 40.3945 44.8633 40.1211V2.32812C47.2461 1.85938 49.7656 1.48828 52.4219 1.21484C55.0781 0.941406 57.8125 0.804688 60.625 0.804688ZM61.0352 10.707C59.043 10.707 57.3047 10.8633 55.8203 11.1758V17.9141H61.3281C62.6172 17.9141 63.7109 17.6016 64.6094 16.9766C65.5078 16.3516 65.957 15.4336 65.957 14.2227C65.957 13.168 65.4883 12.3281 64.5508 11.7031C63.6523 11.0391 62.4805 10.707 61.0352 10.707ZM55.8203 31.5078C56.6406 31.7812 57.6172 31.9766 58.75 32.0938C59.8828 32.1719 60.7617 32.2109 61.3867 32.2109C62.9883 32.2109 64.2773 31.8984 65.2539 31.2734C66.2695 30.6484 66.7773 29.7305 66.7773 28.5195C66.7773 27.3477 66.2109 26.5078 65.0781 26C63.9453 25.4922 62.5781 25.2383 60.9766 25.2383H55.8203V31.5078ZM127.363 1.15625V41H116.406V21.6641L108.379 30.7461H105.098L97.0703 21.6641V41H86.1133V1.15625H89.9805L106.738 18.1484L123.496 1.15625H127.363Z" fill="white"/>
</svg>
